<svg width="459" height="369" viewBox="0 0 459 369" fill="none" xmlns="http://www.w3.org/2000/svg">
<g filter="url(#filter0_d_7_6)">
<path d="M420.225 135.025H336.725C345.625 155.825 341.725 180.825 324.725 197.825L229.025 293.625V326.225C229.025 344.825 244.125 360.025 262.825 360.025H420.325C438.925 360.025 454.125 344.925 454.125 326.225V168.825C454.025 150.125 438.925 135.025 420.225 135.025ZM341.525 264.425C332.225 264.425 324.625 256.825 324.625 247.525C324.625 238.225 332.225 230.625 341.525 230.625C350.825 230.625 358.425 238.225 358.425 247.525C358.425 256.825 350.825 264.425 341.525 264.425ZM308.925 133.125L185.925 10.125C172.425 -3.375 150.625 -3.375 137.125 10.125L14.125 133.125C0.625 146.625 0.625 168.425 14.125 181.925L137.125 304.925C150.625 318.425 172.425 318.425 185.925 304.925L308.925 181.925C322.425 168.425 322.425 146.625 308.925 133.125ZM71.525 174.425C62.225 174.425 54.625 166.825 54.625 157.525C54.625 148.225 62.225 140.625 71.525 140.625C80.825 140.625 88.425 148.225 88.425 157.525C88.425 166.825 80.825 174.425 71.525 174.425ZM161.525 264.425C152.225 264.425 144.625 256.825 144.625 247.525C144.625 238.225 152.225 230.625 161.525 230.625C170.825 230.625 178.425 238.225 178.425 247.525C178.425 256.825 170.825 264.425 161.525 264.425ZM161.525 174.425C152.225 174.425 144.625 166.825 144.625 157.525C144.625 148.225 152.225 140.625 161.525 140.625C170.825 140.625 178.425 148.225 178.425 157.525C178.425 166.825 170.825 174.425 161.525 174.425ZM161.525 84.425C152.225 84.425 144.625 76.825 144.625 67.525C144.625 58.225 152.225 50.625 161.525 50.625C170.825 50.625 178.425 58.225 178.425 67.525C178.425 76.825 170.825 84.425 161.525 84.425ZM251.525 174.425C242.225 174.425 234.625 166.825 234.625 157.525C234.625 148.225 242.225 140.625 251.525 140.625C260.825 140.625 268.425 148.225 268.425 157.525C268.425 166.825 260.825 174.425 251.525 174.425Z" fill="#FFB32F"/>
</g>
<defs>
<filter id="filter0_d_7_6" x="0" y="0" width="458.125" height="368.025" filterUnits="userSpaceOnUse" color-interpolation-filters="sRGB">
<feFlood flood-opacity="0" result="BackgroundImageFix"/>
<feColorMatrix in="SourceAlpha" type="matrix" values="0 0 0 0 0 0 0 0 0 0 0 0 0 0 0 0 0 0 127 0" result="hardAlpha"/>
<feOffset dy="4"/>
<feGaussianBlur stdDeviation="2"/>
<feComposite in2="hardAlpha" operator="out"/>
<feColorMatrix type="matrix" values="0 0 0 0 0 0 0 0 0 0 0 0 0 0 0 0 0 0 0.25 0"/>
<feBlend mode="normal" in2="BackgroundImageFix" result="effect1_dropShadow_7_6"/>
<feBlend mode="normal" in="SourceGraphic" in2="effect1_dropShadow_7_6" result="shape"/>
</filter>
</defs>
</svg>
