<svg width="242" height="512" viewBox="0 0 242 512" fill="none" xmlns="http://www.w3.org/2000/svg">
<g clip-path="url(#clip0_4_2)">
<path d="M209.567 372.69C233.884 358.899 239.023 337.839 186.622 318.894C186.622 318.894 151.087 240.554 149.814 213.42C148.997 196.004 150.295 194.233 150.295 194.233C209.186 185.406 187.498 161.746 171.515 159.693C193.506 143.737 207.861 117.586 207.861 88.0068C207.861 39.4019 169.142 0 121.38 0C73.6172 0 34.8981 39.4019 34.8981 88.0068C34.8981 117.525 49.1935 143.629 71.1074 159.594C36.4458 169.061 57.9724 190.755 90.3544 194.035C92.8602 194.037 92.6419 198.365 92.6419 212.93C92.6419 232.798 69.1001 289.966 55.9274 319.411C55.9274 319.411 36.6747 323.115 22.9682 335.081C10.5303 345.94 11.3356 361.137 33.3891 372.922C-6.57878 419.111 0.481127 475.246 0.481127 475.246C20.7999 526.043 233.631 522.427 241.379 475.245C241.246 449.462 242.24 414.634 209.567 372.69Z" fill="#00BADB"/>
</g>
<defs>
<clipPath id="clip0_4_2">
<rect width="242" height="512" fill="white"/>
</clipPath>
</defs>
</svg>
