<?xml version="1.0" encoding="UTF-8"?>
<svg id="Layer_1" xmlns="http://www.w3.org/2000/svg" viewBox="0 0 239.35 240.09">
    <path
        d="M132.48,182.19c-10.72,19.08-21.4,38.09-32.11,57.16-21.85.25-43.69.49-65.56.74-11.14-18.83-22.25-37.61-33.39-56.43,10.7-19.04,21.4-38.08,32.12-57.14,21.88-.26,43.68-.51,65.54-.77,11.13,18.81,22.24,37.57,33.4,56.45Z"
        style="fill:#169ab9;" />
    <path
        d="M98.95,113.58c-21.84.25-43.64.5-65.55.75C22.28,95.54,11.16,76.74,0,57.9,10.71,38.85,21.41,19.81,32.12.75c21.87-.25,43.67-.5,65.54-.75,11.13,18.8,22.24,37.57,33.4,56.43-10.69,19.03-21.39,38.07-32.11,57.15Z"
        style="fill:#169ab9;" />
    <path
        d="M108.27,119.32c10.73-19.1,21.42-38.11,32.13-57.16,21.85-.24,43.65-.48,65.54-.73,11.14,18.81,22.26,37.6,33.4,56.41-10.73,19.09-21.43,38.13-32.12,57.15-21.9.25-43.69.49-65.54.74-11.13-18.8-22.24-37.56-33.4-56.41Z"
        style="fill:#169ab9;" />
</svg>
