<?xml version="1.0" encoding="UTF-8"?>
<svg width="1200pt" height="1200pt" version="1.1" viewBox="0 0 1200 1200" xmlns="http://www.w3.org/2000/svg">
 <path d="m1191.7 493.96c-3.625-12.215-9.5078-19.293-17.48-21.039-6.7617-1.4922-14.133 1.2812-21.309 5.9727-0.78516-8.0664-2.4141-17.613-4.1719-23.785 1.8398-3.1484 2.293-6.7461 1.1719-10.547-10.281-34.934-159.48-93.359-176.46-99.922-7.3867-2.8125-181.27-69.027-211.23-70.895-0.26562-0.011719-0.55859-0.027344-0.86719-0.027344-18.707 0-159.15 36.574-290.01 72.812-61.773 17.121-263.93 73.668-271.11 83.012-5.6797 7.3867-7.5352 14.988-8.8945 20.508-0.41406 1.707-0.93359 3.8398-1.4648 5.1992-2.3594-0.65234-5.3477-1-8.9336-1-22.094 0-75.281 19.895-89.441 61.215-2.7617 7.9883-3.8164 17.867-3.2695 31.203-0.027344 0-3.3594 15.812-4.2539 26.988-1.3984 17.746-2.8516 34.586 3.2812 51.227 0 0.48047 0.039063 0.29297 0.10547 0.87891-19.668-10.773-43.48-19.414-60.48-14.867-10.922 2.9219-18.078 10.254-21.348 22.293-5.1328 21.559 3.4648 41.188 23.574 54.066 17.574 11.238 40.199 14.586 59.066 10.188 0.054688 22.508 1.5859 60.707 11.094 72.215 87.121 105.31 199.68 136.15 278.76 143.46 15.348 1.4258 30.332 2.0547 44.801 2.0547 77.281 0 139.13-18.078 153.95-30.426 1.2812-1 2.4531-1.9883 3.6133-2.9883 0.10547 0 0.19922 0.066406 0.29297 0.066406 0.13281 0 0.28125-0.011719 0.41406-0.039063 5.0391-0.54687 11.293-0.86719 17.895-1.1875 23.133-1.1602 51.934-2.5859 67.094-15.746 14.746-12.055 9.3086-43.812 6.1875-57.266 8.625-1.7344 16.559-5.3594 21.988-10.84 9.5469-9.5859 9.4531-22.762-0.19922-36.066-7.9336-11.387-19.625-16.734-32.945-15.027-0.16016 0.011719-0.29297 0.066406-0.44141 0.078125-0.64062-15.32-12.094-48.453-20.078-49.852-2.4414-0.53516-22.281-5.1484-39.105-13.762 0.23828-0.69141 0.33203-1.4414 0.09375-2.1875-2.707-9.0547-3.3477-18.652-3.5078-28.215 5.2383-9.3867 27.148-18.215 35.055-19.094 2.0273-0.25391 3.4922-2.0273 3.3086-4.0547-1.1055-12.066 5.4648-22.707 15.961-25.84 0.19922-0.066407 0.39844-0.14844 0.60156-0.23828 1.5859-0.80078 5.5469-0.46484 8.4648-0.22656 4.5469 0.375 8.4805 0.70703 10.922-1.5469 5.1875-4.2812 3.8281-10.348 2.8281-14.801-0.65234-2.9219-1.2656-5.6797-0.51953-7.8945 3.2383-9.7188 12.254-16.988 25.359-20.508 18.961-5.0664 42.254-0.89453 54.16 9.7188 0.97266 0.85156 2.332 1.1484 3.5469 0.78516 1.2383-0.375 2.1992-1.3594 2.5352-2.6133 2.4922-9.375 14.625-18.414 26.48-19.762 5.6406-0.64062 13.281 0.25391 17.465 8.1484 0.53516 1.0273 1.5195 1.7344 2.668 1.9336 1.1328 0.17188 2.3086-0.16016 3.1328-0.94531 9.6914-8.9883 23.133-13.027 32.746-9.7852 6.9883 2.3594 11.535 8.4531 13.133 17.613 0.19922 1.1055 0.87891 2.0781 1.8789 2.625 0.98828 0.54688 2.1719 0.60156 3.2148 0.16016 7.8125-3.2539 20.105-2.1484 29.215 2.6133 6.3477 3.3203 10.453 8.0547 11.574 13.332 0.28125 1.2266 1.1484 2.2266 2.3086 2.6914 1.1719 0.45312 2.5078 0.28125 3.5195-0.46484 9.6406-6.9609 18.375-4.3984 23.32 0.30859 5.6797 5.375 8.8281 15.691 2.375 25.641-0.67969 1.0547-0.78516 2.375-0.28125 3.5195 0.50781 1.1484 1.5469 1.9609 2.8008 2.1719 3.3594 0.55859 7.1992 0.76172 11.293 0.96094 9.1875 0.46484 19.574 0.97266 23.613 5.9883 1.8398 2.2383 2.375 5.4805 1.707 9.8672-0.16797 1.125 0.15234 2.2422 0.89844 3.082 0.73438 0.83984 1.7852 1.3203 2.9336 1.2539 24.574-1.0273 49.48 11.453 64.066 31.188 0.078125 1.6523 2.0781 3.5859 3.2148 4.7461 4.4258 4.6133 20.387-8.375 27.398-11.188 4.1055-1.668 8.3203-3.375 12.508-5.4648 15.719-9.668 31.973-19.68 49.105-27.027 2.0273-0.86719 3.9219-1.625 5.668-2.3477 13.398-5.4805 20.16-8.2383 22.602-27.879 2.4258-19.465 0.23828-42.332-2.4805-64.148-0.10547-0.73438-0.46484-1.3477-0.89453-1.8789 10.48-0.09375 20.773-2.6406 27.668-8.2812 6.0117-4.918 12.039-14.184 6.5469-30.117zm-1097.3 127.43c-6.8945-14.801-4.4141-32.988-3.0547-50.133 0.39844-5.0781 0.80078-10.227 1.0117-15.359 12.309 37.734 50.762 81.852 115.05 131.8 28.773 21.348 153.73 83.281 280.76 83.281 30.039 0 58.801-3.4141 85.453-10.133 8.3086-2.0938 14.867-6.0938 19.641-11.879 4.625 18.055 3.625 28.375 2.3203 41.254-0.011718 0.17188-0.027343 0.30859-0.039062 0.46484-0.44141 1.1484 2.0938 2.293 1.7617 3.4414-4.6016 8.7852-2.0391 20.641-3.1211 20.801-9.3984 1.3477-19.398 6.9727-28.414 12.961-8.4648 5.5742-17.945 11.359-27.492 13.172-9.3984 2.4922-41.785 9.9219-59.641 0.29297-0.58594-0.29297-1.3984-0.39844-2.0391-0.38672 0.12109-1.6406 0.078124-3.3867 0-5.2383-1.332-21.574-24.973-44.387-45.906-44.387-11.012 0-19.254 7.4648-26.52 14.055-5.6797 5.1602-10.586 9.6406-14.602 8.4141-1.1055-0.33203-2.2266-0.14844-3.0938 0.44141-7.332-5.1055-21.066-9.9219-30.945-6.668-5.2266 1.7188-8.668 5.4805-10.148 11.027-43.586-7.625-73.547-22.602-117.33-45.719-0.46484-0.25391-0.97266-0.375-1.4648-0.41406 0.078125-0.16016 0.1875-0.28125 0.28125-0.41406 3.7344-6.7188 4.1484-13.867 1.2148-20.625-5.7734-13.32-23.215-22.922-35.309-26.945 3.0664-8.6016 0.51953-14.48-1.4922-17.441-4.4141-6.4414-13.266-9.9453-22.559-8.9453-2.9453 0.32031-5.6914 1.1055-8.1328 2.2656-0.066406-5.8398-2-11.387-5.6797-15.414-4.1602-4.5195-9.9883-6.332-16.414-5.2656-0.011719-6.7188-2.1055-13.094-6-18.066-3.8945-5-9.4531-8.3594-15.906-9.7461 0.19922-0.14844 0.39844-0.29297 0.57422-0.46484 1.4531-1.4531 0.25391-5.4414-1.1992-6.9062-0.078125-0.09375 1.0547 1.4648 0.96094 1.3867 0.30859-1.6562-17.359-13.387-22.531-24.508zm477.64 257.59c-13.293 11.066-92.879 36.055-193.38 26.746-77.68-7.1875-188.23-37.48-273.71-140.84-5.7852-6.9883-9.3984-33.254-9.3984-68.508 0-0.39844-0.10547-0.74609-0.21484-1.1055 1-0.34766 2-0.73438 2.9883-1.1602-0.89453 4.5469-0.22656 9.0391 2.0664 13 3.5078 6 10.121 9.4805 16.105 8.4805 0.13281-0.027344 0.26562-0.054688 0.39844-0.078126-0.38672 11.922 4.7188 23.453 14.895 32.906 11.801 10.961 27.734 16.414 36.266 12.387 1.0547-0.48047 1.9883-1.1055 2.7734-1.8672 7.625 10.988 22.293 23.535 35.691 24.508 0.54688 0.039063 1.1055 0.066406 1.6797 0.066406 4.3984 0 9.7734-1.332 14.547-6.1602 0.29297 0.87891 0.89453 1.6797 1.7852 2.1328 44.961 23.719 75.602 39 121.08 46.746 2.1211 6.8945 8.9336 12.039 16.121 14.465 6.0781 2.0391 13.094 2.4805 18.668 0.12109 0.86719 5.8945 4.2383 11.508 9.9609 16.398 11.055 9.4648 28.293 14.734 44.309 14.734 8.7617 0 17.16-1.5586 23.961-4.8945 6.3867-3.1211 13.559-8.7852 16.508-18.945 7.8008 4.0664 17.48 5.4922 27.105 5.4922 14.719 0 29.348-3.2812 36.922-5.293 10.762-2.0117 20.148-8.2148 29.227-14.215 8.3086-5.5078 16.148-10.691 23.906-11.785 0.78516-0.13281 1.4141-0.51953 1.9609-1 1.2383 28.734-0.28125 40.336-22.227 57.668zm92.746-70.387c3.707 15.734 6.8398 42.105-3.5586 50.613-13.32 11.535-40.68 12.906-62.68 13.988-3.4141 0.17188-6.7188 0.32031-9.8516 0.53516 12.238-13.652 13.879-26.879 13.148-48.613 2.6133 1.5352 5.6133 2.3477 8.7852 2.3477 2.293 0 4.6797-0.41406 7.0547-1.2812 7.1602-2.5586 15.398-9.8281 18.84-22.719 8.2227 4.168 18.406 5.8242 28.262 5.1289zm-31.254-105.4c9.5078 11.602 16.945 28.359 19.84 44.227-13.227 4.2266-25.535 14.602-31.387 26.773-4.3477-2.3086-8.1211-2.1211-10.812-1.375-2.6523 0.74609-5 2.3203-7.1328 4.332 0.29297-8.8398 2.332-19.535-4.0273-31.895-1.1055-2.1484 2.0664-34.961 0.10547-43.613l33.332 1.3867c0.042968 0.054687 0.054687 0.10937 0.082031 0.16406zm-22.238-8.5078-15.852-0.65234c-1.3086-0.078125-2.3867 0.48047-3.1055 1.4531-0.74609 0.94531-0.96094 2.2148-0.58594 3.375 0.078125 0.25391 7.7344 24.945-1.4414 41.387-3.7617 6.7344-9.9727 11.254-18.48 13.387-26.066 6.5742-54.215 9.9062-83.641 9.9062-125.17 0-248.05-60.84-276.25-81.762-112.04-87.039-121.88-140.62-111.09-169.83 10.828-29.32 57.055-46.68 80.066-50.254 5.625-0.86719 7.8008 0.94531 8.3203 1.2383 1.1875 0.66797 2.668 0.64062 3.8398-0.10547 3.3086-2.1211 4.3086-6.2383 5.4648-11.012 1.2539-5.1211 2.8008-7.4531 7.3984-13.547 19.867-14.785 505.96-151.6 539.89-151.6l21.668-1.668c28.84 0 201.45 69.906 203.24 70.586 45.188 17.426 164.16 66.48 172 93.078 0.13281 0.46484 0.22656-0.10547 0.26562 0.30859 1.1602 2.6797-2.5352 5-2.5078 5.0664-11.691 11.652-102.17 61.293-122.76 61.293-0.25391 0-0.45313-0.054687-0.625-0.066406-7.2266-19.746-23.387-19.961-33.066-20.066-1.8789-0.011719-4.332-0.054688-5.5352-0.30859 0.82812-3.6914 1.3086-22.508-8.2539-28.188-6.8125-4.0547-16.828-6.0938-29.746-6.0938-4.9453 0-9.2266 0.30859-12.012 0.55859-1.7617-6.7344-6.8125-21.332-18.398-25.465-3.2656-1.1719-7.5859-1.7461-13.148-1.7461-12.32 0-27.105 2.8516-32.453 3.9727-5.0547-4.9453-21.945-20.055-35.828-19.172-12.879 0.80078-29.105 9.1328-34.867 12.32-5.9062-4.0938-23.668-15.32-40.625-15.32-2.9219 0-5.707 0.33203-8.3086 1-18.426 4.7188-41.094 20.16-47.547 24.719-4.4648-1.8281-15.691-5.8125-28.055-5.8125-10.215 0-18.895 2.707-25.812 8.0391-15.719 12.148-19.691 26.828-20.68 34.387-6.1211-0.76172-17.934 0.74609-37 15.852-19.148 15.172-14.375 31.867-11.215 42.895 1.2148 4.1992 2.4531 8.5469 1.1719 9.5742-9.3984 7.5469-16.348 15.281-20.652 23.027-9.1992 16.492 2.9727 38.879 10.238 52.266 1.625 2.9727 3.6016 6.6016 4.1211 8.1602-3.5586 8-5.1484 31.934 11.465 47.32 8.0508 7.4961 19.648 13.281 30.398 17.496zm-39.457-76.508c-6.5469-12.027-17.492-32.16-10.293-45.078 3.8516-6.8945 10.188-13.906 18.84-20.852 5.1055-4.1211 3.2656-10.559 1.3203-17.398-3.0781-10.746-6.5742-23.773 8.668-35.852 15.801-12.52 25.492-15.199 29.867-15.199h0.011719c-1.1875 12.16-1.1992 23.238-1.1992 35.16 0 1.8672 1.5586 5.2148-3.0117 8.5352-18.785 10.121-29.309 21.586-35.227 38.16-5.2539 15.719-2.1055 22.48 2.2266 31.734 1.2383 2.668 2.6523 5.6914 3.9609 9.0781 3.5469 11.238 3.5469 23.398 3.5469 36.238 0 2.4414 0 4.9062 0.027344 7.375-1.4648 3.668-1.3594 7.3867 0.35938 10.828 0.34766 5.5078 0.98828 11 2.2383 16.441-2.6523-1.7344-5.0938-3.6016-7.2383-5.5859-15.055-13.961-11.441-35.773-9.5586-39.148 1.6758-3.0234-0.13672-6.3555-4.5391-14.438zm58.055-136c0.066406-3.293 1.2656-19.559 18.078-32.547 5.5742-4.3203 12.746-6.5078 21.266-6.5078 14 0 26.828 5.9336 26.961 6 1.2148 0.57422 2.668 0.42578 3.7734-0.375 0.28125-0.19922 26.852-19.668 46.719-24.746 1.9727-0.50781 4.1602-0.77344 6.4531-0.77344 17.133 0 36.48 14.039 38 15.16-1.5195 0.66797-2.5078 2.2383-2.2266 3.9453 1.2148 7.1328 1.2148 14.215 1.2148 21.707 0 0.33203 0.10547 0.625 0.1875 0.92188-19.441-4.2656-34.227 1.3867-48.52 6.8945-11.801 4.5352-22.934 8.8125-37.199 8.3086-1.6797 0-3.3984-0.011718-5.1328-0.039062-12.762-0.17188-27.188-0.30859-39.16 6.8945-7.6914 5.332-13.961 12.309-20.172 19.066-4.2812 4.7188-13.48 9.5195-13.48 13.863v-0.12109c0-11.867-0.039063-22.188 0.98828-32.559 1.4141-0.65234 2.375-2.2539 2.375-3.8516-0.003906-0.26562-0.070312-1-0.125-1.2422zm356.76 147.48s-3.6133-0.77344-4.3477-0.77344c0.027344-4.5586-2.293-8.375-4.7188-11.387-5.5195-6.8008-24.094-7.1602-23.852-8.7461 0.64062-4.4531 1.1211-11.48 1.4141-15.52 0.32031-4.0664 0.51953-7.9219 1.1484-12.133 0.28125-2.0391-1.1719-3.9219-3.1992-4.2148-2.0117-0.28125-3.9219 1.1211-4.1992 3.1602-0.65234 4.4531-0.96094 8.6133-1.293 12.613-0.29297 4.0938 0.28125 11.027-0.32031 15.254-0.25391 1.8281-3.375 0.66797-5.0273 0.55859 4.8672-11.852 0.625-23.48-6.1992-29.973-7.8281-7.4258-18.652-8.6406-28.613-3.5195-2.5352-5.4531-7.293-10.16-13.785-13.559-8.8789-4.6406-19.973-6.2812-29.121-4.668 0.011718-7.5469 0.13281-15.266 1.1992-22.773 0.28125-2.0273-1.1328-3.9219-3.1602-4.2148-2.0273-0.28125-3.9062 1.1328-4.1992 3.1602-0.65234 4.625-0.97266 9.2539-1.1211 13.852-3.0938-4.1328-7.1875-7.1719-12.121-8.8398-11.121-3.7461-25.465-0.30859-36.828 8.5586-5.0781-6.3477-13.039-9.3086-22.375-8.2539-11.867 1.3477-23.559 8.8516-29.48 18.027-1.1328-4.4258-2.4414-10.332-2.8945-14.188 0.64062-0.10547 1.293-0.375 1.8125-0.83984 1.5586-1.3477 1.7344-3.6914 0.39844-5.2383-3.0547-3.5859-5.6133-3.2656-7.1992-2.375-4.1484 2.3594-2.3594 13.078-0.375 20.988-14.227-6.8125-33.398-8.7344-50.094-4.2812-9.5859 2.5586-17.32 6.9453-22.84 12.746-0.66797-1.5195-1.6523-4.3086-1.6523-7.3086 0-2.0547-1.668-3.7188-3.707-3.7188-2.0781 0-3.7188 1.668-3.7188 3.7188 0 5.2812 2 9.8516 2.8789 11.586 0.35938 0.77344 1 1.3203 1.7344 1.668-1.293 2.1055-2.4141 4.3086-3.1875 6.6523-1.3867 4.1719-0.46484 8.2656 0.30859 11.867 1.0664 4.7188 1.1602 6.2812-0.32031 7.4805-0.96094 0.22656-3.707 0-5.5469-0.14844-4.0664-0.33203-8.6523-0.73438-12.105 0.82812-12.734 3.9609-21.055 16.039-21.078 30.133-8.1484 1.8672-21.973 7.2812-30.867 14.801-0.011719-12.055-0.22656-24.414-3.8398-36.133 11.078-7.332 33.535-40.266 34.309-41.879 10.055-17.066 15.105-18.172 30.094-21.441 2.2266-0.48047 4.6133-1 7.1211-1.6016 12.801-2.5469 19.121-7.8945 25.84-13.547 3.6133-3.0547 7.375-6.2148 12.492-9.1875 0.12109-0.066406 0.23828-0.14844 0.33203-0.22656 10.199-7.4922 27.465-6.668 44.188-5.8516 11.535 0.54688 23.465 1.1055 33.574-0.92188 25.426-4.375 40.398 0.14844 59.387 5.8945 7.2148 2.1875 14.668 4.4414 23.465 6.4648 6.6133 1.5195 13.309 1.668 19.785 1.8125 9.625 0.19922 18.668 0.38672 26.148 5.1484 0.12109 0.066407 0.21484 0.13281 0.33203 0.1875 9.0938 4.5469 13.668 12.148 18.52 20.172 5.1055 8.4414 10.348 17.16 20.973 23.133 4.1055 2.3477 7.2539 3.4258 10.039 4.3867 3.375 1.1602 6.3086 2.1719 10.492 5.1602 2.375 1.9727 4.0391 4.1055 5.8281 6.3594 3.4414 4.3984 7 8.9336 14.879 11.547 9.1328 4.0547 31.375 6.2539 45.867 1.6016-0.14844 16.895 0.77344 34.066 1.707 50.84 0.054687 0.92188-1.4531 1.8398-1.3867 2.7852-13.16-13.734-38.16-23.055-51.492-25.684zm42.57-71.039c-6.3477-1.8125-19.492 0.26562-24.492 1.1719-2.668 0.48047-5.1719 0.94531-7.5586 0.94531-4.3594 0-8.7852-1.1211-12.973-3.1875-2.8672-1.7188-3.4258-3.1602-4.1328-4.9609-0.50781-1.3203-1.1484-2.9453-2.6016-4.3984-0.078125-0.09375-0.19922-0.1875-0.29297-0.28125-0.87891-0.71875-1.9219-1.332-3-1.9219 0.30859-5.5352-0.25391-13.426-0.82812-21.734-0.48047-6.7461-0.98828-13.734-0.98828-19.32 0-2.0547-1.6523-3.7188-3.707-3.7188-2.0547 0-3.7188 1.668-3.7188 3.7188 0 5.8516 0.50781 12.961 1 19.84 0.45313 6.5859 0.92188 13.332 0.89453 18.309-1.6914-0.54688-3.4414-1.0664-5.2539-1.5742-4.8398-1.3867-9.8789-2.8281-13.039-4.8398-2.9336-2.5078-4.1875-5.2539-5.7734-8.7344-1.8125-3.9336-3.8516-8.3867-8.8125-13.348-30.215-27.465-64.281-33.719-100.33-40.348-12.105-2.2266-24.586-4.5586-37.027-7.7617 0.58594-0.65234 0.97266-1.5078 0.97266-2.4531 0-7.4648 0-15.188-1.293-22.934-0.16016-0.89453-0.66797-1.6523-1.3086-2.1992 0.14844-0.066406 0.29297-0.09375 0.44141-0.19922 0.19922-0.10547 19.852-11.641 33.68-12.508 10.906-0.66797 26.453 13.133 31.48 18.375 0.38672 0.42578 0.87891 0.70703 1.3867 0.90625-1.1719 7.5859-1.1992 16.293-1.1992 24.719 0 2.0664 1.6797 3.7188 3.7188 3.7188 2.0547 0 3.707-1.668 3.707-3.7188 0-8.375 0-17.039 1.1875-24.172 0.09375-0.50781 0.078125-1-0.039062-1.4648 6.5469-1.2539 18.027-3.1484 27.547-3.1484 4.6406 0 8.2148 0.44141 10.668 1.3086 8.9609 3.1992 13.375 17.812 14.32 23.172 0.34766 1.9609 2.1484 3.332 4.1875 3.0391 0.054687 0 6.3867-0.87891 14.387-0.87891 11.414 0 20.375 1.7461 25.961 5.0547 4.7344 2.8281 5.6016 16.574 4.7734 20.133-0.57422 2.5195-0.22656 4.6406 1.0781 6.293 2.3477 2.9883 6.4258 3.0391 11.625 3.1055 9.3867 0.09375 21.055 0.22656 26.441 15.895 0.54688 1.5586 2.1875 4.1602 7.3477 4.1602 18.188 0 101.85-41.879 124.97-60.973 1.3867 6.4414 2.7461 15.359 3.1211 22.375-8.8398 7.293-16.945 16.48-22.613 22.973-0.41406 0.46484-0.82812 0.93359-1.1992 1.375-14.652-10.906-35.254-6.8125-46.453 4.6914-5.2383 5.3867-7.7344 11.602-7.5195 17.828-0.42578-0.011718-0.85156 0.027344-1.293 0.16016-10.5 3.2969-30.301 12.75-37.449 27.512zm124.18 38.852c-1.9219 15.32-5.3203 16.719-18.027 21.934-1.7852 0.71875-3.707 1.4922-5.7852 2.3984-17.641 7.5469-34.121 17.707-49.785 27.375-3.6133 1.8008-7.5195 3.3867-11.652 5.0547-7.1719 2.8945-14.508 5.8398-20.535 10.16-0.21484-4.0781-0.44141-8.1484-0.66797-12.266-1-17.867-1.9453-36.227-1.6133-54.055 0.46484-0.33203 0.96094-0.66797 1.3867-1.0391 0.28125-0.23828 0.46484-0.54688 0.65234-0.85156 1.7617 0.35938 3.5469 0.61328 5.4141 0.61328 3.4141 0 6.9883-0.61328 10.707-1.8789 13.602-4.6523 25.895-17.32 29.227-32.199 1.3867 0.98828 2.9453 1.8281 4.6797 2.5078 10.934 4.1875 25.414 0.33203 33.707-8.9219 4.0273-4.4922 9.332-13.426 5.5195-26.945 4.707 1.5195 9.9336 2.5078 15.281 2.8789-0.71875 0.78516-1.1328 1.8125-0.98828 2.9453 2.6797 21.316 4.8281 43.625 2.4805 62.289z"/>
 <path d="m699.72 470.96c0.35938 1.7734 1.9062 3 3.6406 3 0.25391 0 0.49219-0.027344 0.73438-0.066407 2.0117-0.39844 3.332-2.3594 2.9219-4.3867l-0.54688-2.625c-0.98828-4.8672-1.8398-9.0664-1.8398-13.988 0-2.0547-1.6797-3.7188-3.7188-3.7188-2.0664 0-3.7344 1.668-3.7344 3.7188 0 5.6914 0.98828 10.453 2.0273 15.508z"/>
 <path d="m460.54 668.44-1.332 1.332c-0.011719-0.039063-0.039063-0.066407-0.066406-0.09375-0.078125-1.9727-1.707-3.5742-3.707-3.5742-1.6406 0-3.375 1.2656-3.8516 2.8281-0.35938 1.1875-1.4414 4.7188 10.453 12.668 0.64062 0.41406 1.3477 0.61328 2.0664 0.61328 0.87891 0 1.7734-0.29297 2.4648-0.92188 1.2539-1.1055 1.625-2.9336 0.86719-4.4414-1.5078-3-4.2305-5.7305-6.8945-8.4102z"/>
 <path d="m475.15 648.73c-0.92188-0.71875-1.1328-0.86719-1.5195-1.6523-0.90625-1.8281-3.1484-2.5586-4.9883-1.6523s-2.5859 3.1484-1.668 4.9883c1.1484 2.3086 2.4805 3.3203 3.6523 4.2148 0.55859 0.42578 1.1992 0.90625 2 1.707 0.73438 0.73438 1.6797 1.0938 2.625 1.0938s1.9062-0.35938 2.625-1.0938c1.4531-1.4531 1.4531-3.8008 0-5.2656-1.0898-1.0859-1.9688-1.7656-2.7266-2.3398z"/>
 <path d="m512.03 651.64c-0.83984 0.41406-3.4141 1.6914-4.0117 4.6016-0.38672 1.9727 0.33203 3.8125 1.1055 5.3203 0.65234 1.3203 1.9609 2.0664 3.332 2.0664 0.55859 0 1.1211-0.13281 1.6523-0.38672 1.8398-0.92188 2.5859-3.1484 1.668-4.9883-0.027344-0.054687-0.054688-0.12109-0.078126-0.17188 1.5859-1 2.1719-3.0664 1.3203-4.7852-0.91016-1.8438-3.1367-2.5781-4.9883-1.6562z"/>
 <path d="m382.83 560.51c-3.0391 1.625-3.0391 5.4141-3.0391 7.668 0 2.0547 1.668 3.7188 3.7188 3.7188 2.0547 0 3.7188-1.668 3.7188-3.7188 1.1992 0 2.375-0.57422 3.0938-1.6523 1.1328-1.707 0.67969-4.0273-1.0273-5.1602-2.9609-1.9883-5.1445-1.5625-6.4648-0.85547z"/>
 <path d="m354.61 604.93c-0.92188-1.8398-3.1602-2.5742-5-1.668-1.8398 0.92188-2.5859 3.1602-1.668 5 2.5195 5.0547 4.2539 8.2383 5.6523 9.6406 0.70703 0.71875 1.625 1.0664 2.5469 1.0664s1.8516-0.34766 2.6016-1.0391c1.4531-1.3867 1.4805-3.7617 0.12109-5.2539-0.58594-0.67969-2.0391-3.2812-4.2539-7.7461z"/>
 <path d="m426.91 464.03c0-2.0547-1.668-3.7188-3.7188-3.7188-2.0547 0-3.7188 1.668-3.7188 3.7188 0 1.5078 0 4.0273 2.332 6.3594 0.70703 0.70703 1.625 1.0547 2.5469 1.0547 0.96094 0 1.9219-0.375 2.668-1.1055 1.4414-1.4531 1.3867-3.8789-0.054687-5.3203-0.054688-0.14844-0.054688-0.64062-0.054688-0.98828z"/>
 <path d="m290.38 450.25-2.4648 2.4805c-1.4531 1.4531-1.4531 3.8125 0 5.2656 0.71875 0.73438 1.668 1.0938 2.625 1.0938 0.96094 0 1.9062-0.35938 2.625-1.0938l2.4922-2.4922c1.4414-1.4531 1.4414-3.8008-0.011719-5.2539s-3.8125-1.4531-5.2656 0z"/>
 <path d="m295.49 429.32c-2.0547 0-3.7188 1.668-3.7188 3.7188 0 2.0664 1.668 3.7188 3.7188 3.7188 2.0664 0 3.6523 1.4648 6.0547 3.8672 0.71875 0.73438 1.6797 1.0938 2.625 1.0938 0.96094 0 1.9062-0.35938 2.6406-1.0938 1.4531-1.4531 1.4531-3.8125 0-5.2656-2.707-2.6914-6.0508-6.0391-11.32-6.0391z"/>
 <path d="m279.39 447.31h-3.7188c-2.0664 0-3.7188 1.9883-3.7188 4.0391 0 2.0664 1.668 4.0547 3.7188 4.0547h3.7188c2.0547 0 3.707-1.9883 3.707-4.0547 0-2.0391-1.6523-4.0391-3.707-4.0391z"/>
 <path d="m201.33 516.31c-4.9727 1.6523-7.4922 5.332-7.4922 10.961 0 2.0391 1.668 3.7188 3.7188 3.7188 2.0547 0 3.7188-1.668 3.7188-3.7188 0-2.6797 0.71875-3.3477 2.4141-3.9062 1.9453-0.65234 3.0117-2.7617 2.3594-4.707-0.65234-1.9648-2.7578-3.0156-4.7188-2.3477z"/>
 <path d="m154.16 530.99c-4.0938 0-7.7461 2.2148-9.5195 5.7617-0.92188 1.8398-0.1875 4.0781 1.6523 5 0.53516 0.26562 1.1055 0.39844 1.668 0.39844 1.375 0 2.6797-0.76172 3.332-2.0547 0.77344-1.5469 2.3984-1.668 2.8789-1.668 2.0547 0 3.7188-1.668 3.7188-3.7188 0.003906-2.0664-1.6641-3.7188-3.7305-3.7188z"/>
 <path d="m164.51 483.03c-1.8398-0.90625-4.0781-0.1875-5 1.668-1.625 3.2656-1.625 6.375-1.625 9.1055 0 2.0547 1.6523 3.7188 3.7188 3.7188 2.0547 0 3.7188-1.668 3.7188-3.7188 0-2.1875 0-4.0938 0.83984-5.7852 0.91797-1.8438 0.1875-4.082-1.6523-4.9883z"/>
 <path d="m256.61 612.12c0.77344-1.4141 0.55859-3.2266-0.625-4.4258-1.4531-1.4531-3.8008-1.4531-5.2656 0-3.6133 3.6016-0.28125 9.9336 2.0117 13.359 0.70703 1.0781 1.8945 1.668 3.0781 1.668 0.71875 0 1.4258-0.21484 2.0664-0.64062 1.6914-1.1328 2.1602-3.4258 1.0273-5.1484-1.5195-2.3086-2.1602-4.0547-2.293-4.8125z"/>
 <path d="m290.35 539.72c-0.65234-1.9453-2.7461-2.9883-4.707-2.3477-1.9453 0.65234-3.0117 2.7617-2.3594 4.7188 1.3477 4 2.7188 6.7461 3.9219 9.1719 0.65234 1.3086 1.9609 2.0391 3.332 2.0391 0.55859 0 1.1328-0.12109 1.668-0.38672 1.8398-0.92187 2.5742-3.1602 1.6523-5-1.2031-2.4062-2.3477-4.6875-3.5078-8.1953z"/>
 <path d="m546.35 526.41c-1.7461-0.87891-3.6523-2.7734-4.5352-4.5352-0.90625-1.8281-3.1484-2.5742-4.9883-1.6523-1.8398 0.92188-2.5742 3.1484-1.6523 5 1.6016 3.1719 4.6797 6.2656 7.8516 7.8398 0.53516 0.26562 1.0938 0.38672 1.6523 0.38672 1.375 0 2.6797-0.74609 3.332-2.0547 0.92578-1.8398 0.17969-4.0664-1.6602-4.9844z"/>
 <path d="m653.93 371.13c0.89453 0 1.7734-0.33203 2.4805-1.0117 1.4531-1.4531 1.4531-3.668 0-5.1211 1.4531-1.4531 1.4531-3.8125 0-5.2656-1.4414-1.4414-3.8008-1.4414-5.2539 0-2.6797 2.6797-2.6797 7.5469 0 10.227 0.74609 0.77344 1.7617 1.1719 2.7734 1.1719z"/>
 <path d="m652.4 394.45c-1.4531 1.4531-1.4531 3.8008 0 5.2539 2.1055 2.1211 4.1602 3.4414 6.5742 4.9453 0.82812 0.53516 1.6914 1.0781 2.668 1.7188 0.625 0.41406 1.3477 0.625 2.0547 0.625 1.1992 0 2.375-0.57422 3.0781-1.668 1.1484-1.707 0.69141-4.0117-1.0273-5.1602-1.0117-0.66797-1.9453-1.2656-2.8008-1.8125-0.21484-0.12109-0.35937-0.23828-0.54687-0.35938-0.1875-1.9062-1.7188-3.4258-3.6523-3.4258h-0.93359c-0.054688 0-0.09375-0.078124-0.16016-0.14844-1.4531-1.4219-3.8125-1.4102-5.2539 0.03125z"/>
 <path d="m720.23 317.49c0.70703 0.93359 1.8125 1.5078 2.9883 1.5078 0.38672 0 0.78516-0.066406 1.1875-0.19922 1.9453-0.64062 3-2.7617 2.3477-4.707-1.3867-4.1602-4.0938-6.4531-6.9336-5.9727-0.93359 0.16016-4.0547 1.0273-4.0547 5.9062 0 2.3047 2.25 3.918 4.4648 3.4648z"/>
 <path d="m883.93 383.05 7.4648 3.7188c0.51953 0.26562 1.0938 0.39844 1.6523 0.39844 1.375 0 2.668-0.76172 3.332-2.0664 0.90625-1.8398 0.17188-4.0664-1.6797-4.9883l-7.4414-3.7188c-1.8281-0.90625-4.0664-0.17188-4.9727 1.668-0.90234 1.8398-0.16797 4.082 1.6445 4.9883z"/>
 <path d="m884.59 417.11c1.3086 1.0664 2.1992 1.8281 2.6523 2.7188 0.66797 1.3086 1.9609 2.0664 3.332 2.0664 0.55859 0 1.1328-0.13281 1.6523-0.39844 1.8398-0.90625 2.5859-3.1484 1.668-5-1.1484-2.293-2.8945-3.7461-4.6016-5.1328-0.73437-0.60156-1.5078-1.2539-2.3086-2.0273-1.4531-1.4414-3.8008-1.4414-5.2656 0-1.4414 1.4531-1.4414 3.8008 0 5.2539 0.99219 0.97266 1.9648 1.7891 2.8711 2.5195z"/>
 <path d="m962.48 447.92c0.94531 0 1.9062-0.35938 2.625-1.0781 1.3203-1.332 1.8516-2.6914 2.3086-3.9062 0.23828-0.55859 0.46484-1.2148 0.86719-2.0273 0.90625-1.8398 0.16016-4.0781-1.668-4.9883-1.8281-0.90625-4.0664-0.17188-4.9883 1.668-0.53516 1.0781-0.87891 1.9453-1.1719 2.6914-0.33203 0.93359-0.44141 1.1055-0.61328 1.2812-1.4414 1.4531-1.4414 3.8125 0 5.2656 0.71875 0.71875 1.668 1.0938 2.6406 1.0938z"/>
 <path d="m1097.6 614.67c-0.78516-0.22656-3.5078-0.58594-4.7461 3.1602-0.22656 0.69141-0.23828 1.3594-0.078125 1.9883-0.078125 0.51953-0.19922 1.1055-0.32031 1.7461-0.61328 3.5586-1.0273 5.9727-1.0273 7.3594 0 2.0547 1.6523 3.7188 3.707 3.7188 2.0664 0 3.7188-1.668 3.7188-3.7188 0-0.82812 0.60156-4.2266 0.92188-6.0547 0.82422-4.5859 1.3047-7.3477-2.1758-8.1992z"/>
 <path d="m1109.2 608.24c-1.8281-0.92188-4.1211-0.22656-5.0273 1.625-0.93359 1.8398-0.23828 4.0391 1.6016 4.9609 0.51953 0.66797 0.51953 3.7617 0.51953 5.4258 0 2.0547 1.6797 3.707 3.7188 3.707 2.0547 0 3.707-1.6523 3.707-3.707 0.015625-4.3438 0.015625-9.7422-4.5195-12.012z"/>
</svg>
