<svg xmlns="http://www.w3.org/2000/svg" version="1.1" xmlns:xlink="http://www.w3.org/1999/xlink" xmlns:svgjs="http://svgjs.dev/svgjs" width="1440" height="1000" preserveAspectRatio="none" viewBox="0 0 1440 1000"><g mask="url(&quot;#SvgjsMask1121&quot;)" fill="none"><rect width="1440" height="1000" x="0" y="0" fill="url(&quot;#SvgjsLinearGradient1122&quot;)"></rect><path d="M -670.666480745778,262 C -574.67,315.2 -382.67,534.6 -190.66648074577807,528 C 1.33,521.4 97.33,159.2 289.3335192542219,229 C 481.33,298.8 577.33,829.8 769.333519254222,877 C 961.33,924.2 1115.2,504.4 1249.333519254222,465 C 1383.47,425.6 1401.87,637 1440,680" stroke="rgba(255, 0, 128, 1)" stroke-width="2"></path><path d="M -679.2329206616514,461 C -583.23,505.6 -391.23,698 -199.23292066165146,684 C -7.23,670 88.77,372.2 280.76707933834854,391 C 472.77,409.8 568.77,765.8 760.7670793383486,778 C 952.77,790.2 1104.92,468.4 1240.7670793383486,452 C 1376.61,435.6 1400.15,647.2 1440,696" stroke="rgba(255, 0, 128, 1)" stroke-width="2"></path><path d="M -935.459298932514,321 C -839.46,372.4 -647.46,576.6 -455.45929893251406,578 C -263.46,579.4 -167.46,281.2 24.54070106748594,328 C 216.54,374.8 312.54,823.2 504.54070106748594,812 C 696.54,800.8 797.45,322.6 984.540701067486,272 C 1171.63,221.4 1348.91,501.6 1440,559" stroke="rgba(127, 47, 238, 1)" stroke-width="2"></path><path d="M -34.71559812031944,474 C 61.28,505.6 253.28,638.8 445.28440187968056,632 C 637.28,625.2 733.28,436.4 925.2844018796806,440 C 1117.28,443.6 1213.28,680.4 1405.2844018796804,650 C 1597.28,619.6 1878.34,262.8 1885.2844018796804,288 C 1892.23,313.2 1529.06,678.4 1440,776" stroke="rgba(127, 47, 238, 1)" stroke-width="2"></path></g><defs><mask id="SvgjsMask1121"><rect width="1440" height="1000" fill="#ffffff"></rect></mask><linearGradient x1="7.64%" y1="-11%" x2="92.36%" y2="111%" gradientUnits="userSpaceOnUse" id="SvgjsLinearGradient1122"><stop stop-color="#0e2a47" offset="0"></stop><stop stop-color="rgba(10, 48, 97, 1)" offset="1"></stop></linearGradient></defs></svg>