<svg xmlns="http://www.w3.org/2000/svg" version="1.1" xmlns:xlink="http://www.w3.org/1999/xlink" xmlns:svgjs="http://svgjs.dev/svgjs" width="1440" height="560" preserveAspectRatio="none" viewBox="0 0 1440 560"><g mask="url(&quot;#SvgjsMask1110&quot;)" fill="none"><rect width="1440" height="560" x="0" y="0" fill="url(&quot;#SvgjsLinearGradient1111&quot;)"></rect><path d="M -877.4755674758426,388 C -781.48,364.6 -589.48,284.8 -397.4755674758425,271 C -205.48,257.2 -109.48,323.6 82.52443252415748,319 C 274.52,314.4 370.52,214.4 562.5244325241574,248 C 754.52,281.6 867.03,516 1042.5244325241574,487 C 1218.02,458 1360.5,179.8 1440,103" stroke="rgba(255, 0, 128, 1)" stroke-width="2"></path><path d="M -57.4247822428369,71 C 38.58,157.6 230.58,496.8 422.5752177571631,504 C 614.58,511.2 710.58,107.6 902.575217757163,107 C 1094.58,106.4 1190.58,486.8 1382.575217757163,501 C 1574.58,515.2 1851.09,208.2 1862.575217757163,178 C 1874.06,147.8 1524.52,315.6 1440,350" stroke="rgba(127, 47, 238, 1)" stroke-width="2"></path><path d="M -910.3406837919827,201 C -814.34,228 -622.34,328.6 -430.3406837919826,336 C -238.34,343.4 -142.34,239.6 49.6593162080174,238 C 241.66,236.4 337.66,324.4 529.6593162080173,328 C 721.66,331.6 827.59,261.4 1009.6593162080173,256 C 1191.73,250.6 1353.93,292 1440,301" stroke="rgba(127, 47, 238, 1)" stroke-width="2"></path><path d="M -670.7327289073311,121 C -574.73,168.2 -382.73,339.2 -190.73272890733105,357 C 1.27,374.8 97.27,206.8 289.2672710926689,210 C 481.27,213.2 577.27,377.8 769.2672710926689,373 C 961.27,368.2 1115.12,178 1249.267271092669,186 C 1383.41,194 1401.85,367.6 1440,413" stroke="rgba(255, 0, 128, 1)" stroke-width="2"></path></g><defs><mask id="SvgjsMask1110"><rect width="1440" height="560" fill="#ffffff"></rect></mask><linearGradient x1="15.28%" y1="-39.29%" x2="84.72%" y2="139.29%" gradientUnits="userSpaceOnUse" id="SvgjsLinearGradient1111"><stop stop-color="#0e2a47" offset="0"></stop><stop stop-color="rgba(10, 48, 97, 1)" offset="1"></stop></linearGradient></defs></svg>